<?xml version="1.0" standalone="no"?>
<!DOCTYPE svg PUBLIC "-//W3C//DTD SVG 20010904//EN"
 "http://www.w3.org/TR/2001/REC-SVG-20010904/DTD/svg10.dtd">
<svg version="1.0" xmlns="http://www.w3.org/2000/svg"
 width="626.000000pt" height="626.000000pt" viewBox="0 0 626.000000 626.000000"
 preserveAspectRatio="xMidYMid meet">

<g transform="translate(0.000000,626.000000) scale(0.100000,-0.100000)"
fill="#000000" stroke="none">
<circle cx="2984" cy="4482" r="50" />
<circle cx="3130" cy="4492" r="50" />
<circle cx="3270" cy="4492" r="50" />
<circle cx="2850" cy="4358" r="50" />
<circle cx="2988" cy="4354" r="50" />
<circle cx="3136" cy="4363" r="50" />
<circle cx="3275" cy="4356" r="50" />
<circle cx="3988" cy="4354" r="50" />
<circle cx="2560" cy="4222" r="50" />
<circle cx="2700" cy="4222" r="50" />
<circle cx="2844" cy="4218" r="50" />
<circle cx="2982" cy="4209" r="50" />
<circle cx="3130" cy="4222" r="50" />
<circle cx="3276" cy="4223" r="50" />
<circle cx="3414" cy="4218" r="50" />
<circle cx="3553" cy="4210" r="50" />
<circle cx="3982" cy="4209" r="50" />
<circle cx="4130" cy="4222" r="50" />
<circle cx="2140" cy="4088" r="50" />
<circle cx="2280" cy="4088" r="50" />
<circle cx="2418" cy="4084" r="50" />
<circle cx="2575" cy="4097" r="50" />
<circle cx="2710" cy="4089" r="50" />
<circle cx="2848" cy="4084" r="50" />
<circle cx="3001" cy="4094" r="50" />
<circle cx="3140" cy="4088" r="50" />
<circle cx="3280" cy="4088" r="50" />
<circle cx="3419" cy="4085" r="50" />
<circle cx="3577" cy="4097" r="50" />
<circle cx="3710" cy="4089" r="50" />
<circle cx="3850" cy="4088" r="50" />
<circle cx="4008" cy="4097" r="50" />
<circle cx="4148" cy="4097" r="50" />
<circle cx="4280" cy="4088" r="50" />
<circle cx="2275" cy="3946" r="50" />
<circle cx="2413" cy="3944" r="50" />
<circle cx="2560" cy="3952" r="50" />
<circle cx="2706" cy="3953" r="50" />
<circle cx="2845" cy="3946" r="50" />
<circle cx="2984" cy="3942" r="50" />
<circle cx="3136" cy="3953" r="50" />
<circle cx="3274" cy="3948" r="50" />
<circle cx="3415" cy="3946" r="50" />
<circle cx="3554" cy="3942" r="50" />
<circle cx="3706" cy="3953" r="50" />
<circle cx="3844" cy="3948" r="50" />
<circle cx="3982" cy="3939" r="50" />
<circle cx="4136" cy="3953" r="50" />
<circle cx="4274" cy="3948" r="50" />
<circle cx="4415" cy="3946" r="50" />
<circle cx="2129" cy="3810" r="50" />
<circle cx="2270" cy="3812" r="50" />
<circle cx="2406" cy="3799" r="50" />
<circle cx="2552" cy="3799" r="50" />
<circle cx="2700" cy="3812" r="50" />
<circle cx="2836" cy="3799" r="50" />
<circle cx="2984" cy="3808" r="50" />
<circle cx="3129" cy="3810" r="50" />
<circle cx="3269" cy="3810" r="50" />
<circle cx="3406" cy="3800" r="50" />
<circle cx="3552" cy="3799" r="50" />
<circle cx="3700" cy="3812" r="50" />
<circle cx="3838" cy="3803" r="50" />
<circle cx="3976" cy="3799" r="50" />
<circle cx="4130" cy="3812" r="50" />
<circle cx="4270" cy="3812" r="50" />
<circle cx="4406" cy="3799" r="50" />
<circle cx="4562" cy="3816" r="50" />
<circle cx="2133" cy="3678" r="50" />
<circle cx="2280" cy="3678" r="50" />
<circle cx="2418" cy="3674" r="50" />
<circle cx="2570" cy="3687" r="50" />
<circle cx="2705" cy="3676" r="50" />
<circle cx="2850" cy="3678" r="50" />
<circle cx="2988" cy="3674" r="50" />
<circle cx="3136" cy="3683" r="50" />
<circle cx="3275" cy="3676" r="50" />
<circle cx="3418" cy="3674" r="50" />
<circle cx="3570" cy="3687" r="50" />
<circle cx="3704" cy="3678" r="50" />
<circle cx="3845" cy="3676" r="50" />
<circle cx="3988" cy="3674" r="50" />
<circle cx="4136" cy="3683" r="50" />
<circle cx="4275" cy="3676" r="50" />
<circle cx="4420" cy="3678" r="50" />
<circle cx="4558" cy="3674" r="50" />
<circle cx="4703" cy="3678" r="50" />
<circle cx="4845" cy="3676" r="50" />
<circle cx="4988" cy="3674" r="50" />
<circle cx="5134" cy="3681" r="50" />
<circle cx="844" cy="3538" r="50" />
<circle cx="983" cy="3530" r="50" />
<circle cx="1130" cy="3542" r="50" />
<circle cx="1706" cy="3543" r="50" />
<circle cx="1844" cy="3538" r="50" />
<circle cx="2268" cy="3535" r="50" />
<circle cx="2414" cy="3538" r="50" />
<circle cx="2560" cy="3542" r="50" />
<circle cx="2700" cy="3542" r="50" />
<circle cx="2844" cy="3538" r="50" />
<circle cx="2982" cy="3529" r="50" />
<circle cx="3130" cy="3542" r="50" />
<circle cx="3270" cy="3542" r="50" />
<circle cx="3414" cy="3538" r="50" />
<circle cx="3553" cy="3530" r="50" />
<circle cx="3700" cy="3542" r="50" />
<circle cx="3844" cy="3538" r="50" />
<circle cx="3983" cy="3534" r="50" />
<circle cx="4130" cy="3542" r="50" />
<circle cx="4270" cy="3542" r="50" />
<circle cx="4414" cy="3538" r="50" />
<circle cx="4552" cy="3529" r="50" />
<circle cx="4700" cy="3542" r="50" />
<circle cx="4844" cy="3538" r="50" />
<circle cx="4984" cy="3538" r="50" />
<circle cx="5130" cy="3542" r="50" />
<circle cx="5270" cy="3542" r="50" />
<circle cx="5552" cy="3529" r="50" />
<circle cx="710" cy="3408" r="50" />
<circle cx="848" cy="3404" r="50" />
<circle cx="1005" cy="3417" r="50" />
<circle cx="1140" cy="3408" r="50" />
<circle cx="1280" cy="3408" r="50" />
<circle cx="1418" cy="3404" r="50" />
<circle cx="1563" cy="3400" r="50" />
<circle cx="1710" cy="3408" r="50" />
<circle cx="1848" cy="3404" r="50" />
<circle cx="2001" cy="3414" r="50" />
<circle cx="2148" cy="3417" r="50" />
<circle cx="2280" cy="3408" r="50" />
<circle cx="2418" cy="3404" r="50" />
<circle cx="2577" cy="3417" r="50" />
<circle cx="2710" cy="3409" r="50" />
<circle cx="2850" cy="3408" r="50" />
<circle cx="2988" cy="3404" r="50" />
<circle cx="3140" cy="3408" r="50" />
<circle cx="3280" cy="3408" r="50" />
<circle cx="3418" cy="3404" r="50" />
<circle cx="3575" cy="3417" r="50" />
<circle cx="3710" cy="3409" r="50" />
<circle cx="3850" cy="3408" r="50" />
<circle cx="3988" cy="3404" r="50" />
<circle cx="4134" cy="3408" r="50" />
<circle cx="4280" cy="3408" r="50" />
<circle cx="4418" cy="3404" r="50" />
<circle cx="4571" cy="3414" r="50" />
<circle cx="4710" cy="3408" r="50" />
<circle cx="4850" cy="3408" r="50" />
<circle cx="4988" cy="3404" r="50" />
<circle cx="5147" cy="3417" r="50" />
<circle cx="5280" cy="3408" r="50" />
<circle cx="5418" cy="3404" r="50" />
<circle cx="5558" cy="3404" r="50" />
<circle cx="5710" cy="3408" r="50" />
<circle cx="566" cy="3273" r="50" />
<circle cx="704" cy="3268" r="50" />
<circle cx="843" cy="3264" r="50" />
<circle cx="983" cy="3260" r="50" />
<circle cx="1136" cy="3273" r="50" />
<circle cx="1275" cy="3266" r="50" />
<circle cx="1412" cy="3259" r="50" />
<circle cx="1566" cy="3273" r="50" />
<circle cx="1704" cy="3268" r="50" />
<circle cx="1845" cy="3266" r="50" />
<circle cx="1984" cy="3262" r="50" />
<circle cx="2136" cy="3273" r="50" />
<circle cx="2274" cy="3268" r="50" />
<circle cx="2413" cy="3264" r="50" />
<circle cx="2553" cy="3260" r="50" />
<circle cx="2706" cy="3273" r="50" />
<circle cx="2845" cy="3266" r="50" />
<circle cx="2982" cy="3259" r="50" />
<circle cx="3136" cy="3273" r="50" />
<circle cx="3274" cy="3268" r="50" />
<circle cx="3413" cy="3264" r="50" />
<circle cx="3554" cy="3262" r="50" />
<circle cx="3706" cy="3273" r="50" />
<circle cx="3845" cy="3266" r="50" />
<circle cx="3984" cy="3262" r="50" />
<circle cx="4136" cy="3273" r="50" />
<circle cx="4274" cy="3268" r="50" />
<circle cx="4415" cy="3266" r="50" />
<circle cx="4554" cy="3262" r="50" />
<circle cx="4706" cy="3273" r="50" />
<circle cx="4844" cy="3268" r="50" />
<circle cx="4983" cy="3264" r="50" />
<circle cx="5130" cy="3272" r="50" />
<circle cx="5276" cy="3273" r="50" />
<circle cx="5415" cy="3266" r="50" />
<circle cx="5552" cy="3259" r="50" />
<circle cx="560" cy="3132" r="50" />
<circle cx="700" cy="3132" r="50" />
<circle cx="836" cy="3120" r="50" />
<circle cx="982" cy="3119" r="50" />
<circle cx="1130" cy="3132" r="50" />
<circle cx="1266" cy="3119" r="50" />
<circle cx="1406" cy="3119" r="50" />
<circle cx="1560" cy="3132" r="50" />
<circle cx="1700" cy="3132" r="50" />
<circle cx="1836" cy="3119" r="50" />
<circle cx="1982" cy="3119" r="50" />
<circle cx="2130" cy="3132" r="50" />
<circle cx="2270" cy="3132" r="50" />
<circle cx="2406" cy="3119" r="50" />
<circle cx="2552" cy="3119" r="50" />
<circle cx="2700" cy="3132" r="50" />
<circle cx="2836" cy="3119" r="50" />
<circle cx="2984" cy="3122" r="50" />
<circle cx="3130" cy="3132" r="50" />
<circle cx="3270" cy="3132" r="50" />
<circle cx="3406" cy="3119" r="50" />
<circle cx="3552" cy="3119" r="50" />
<circle cx="3700" cy="3132" r="50" />
<circle cx="3840" cy="3132" r="50" />
<circle cx="3976" cy="3119" r="50" />
<circle cx="4130" cy="3132" r="50" />
<circle cx="4270" cy="3132" r="50" />
<circle cx="4406" cy="3119" r="50" />
<circle cx="4559" cy="3135" r="50" />
<circle cx="4700" cy="3132" r="50" />
<circle cx="4840" cy="3132" r="50" />
<circle cx="4984" cy="3129" r="50" />
<circle cx="5122" cy="3119" r="50" />
<circle cx="5270" cy="3132" r="50" />
<circle cx="5406" cy="3119" r="50" />
<circle cx="5548" cy="3115" r="50" />
<circle cx="564" cy="3001" r="50" />
<circle cx="705" cy="2996" r="50" />
<circle cx="848" cy="2994" r="50" />
<circle cx="1000" cy="3007" r="50" />
<circle cx="1134" cy="2998" r="50" />
<circle cx="1275" cy="2996" r="50" />
<circle cx="1418" cy="2994" r="50" />
<circle cx="1566" cy="3003" r="50" />
<circle cx="1705" cy="2996" r="50" />
<circle cx="1845" cy="2996" r="50" />
<circle cx="1988" cy="2994" r="50" />
<circle cx="2136" cy="3003" r="50" />
<circle cx="2275" cy="2996" r="50" />
<circle cx="2418" cy="2994" r="50" />
<circle cx="2564" cy="3001" r="50" />
<circle cx="2704" cy="2998" r="50" />
<circle cx="2850" cy="2998" r="50" />
<circle cx="2988" cy="2994" r="50" />
<circle cx="3136" cy="3003" r="50" />
<circle cx="3275" cy="2996" r="50" />
<circle cx="3418" cy="2994" r="50" />
<circle cx="3570" cy="3007" r="50" />
<circle cx="3704" cy="2998" r="50" />
<circle cx="3845" cy="2996" r="50" />
<circle cx="3988" cy="2994" r="50" />
<circle cx="4134" cy="3001" r="50" />
<circle cx="4275" cy="2996" r="50" />
<circle cx="4420" cy="2998" r="50" />
<circle cx="4558" cy="2994" r="50" />
<circle cx="4706" cy="3003" r="50" />
<circle cx="4845" cy="2996" r="50" />
<circle cx="4988" cy="2994" r="50" />
<circle cx="5134" cy="3001" r="50" />
<circle cx="5274" cy="2998" r="50" />
<circle cx="5420" cy="2998" r="50" />
<circle cx="5558" cy="2994" r="50" />
<circle cx="700" cy="2862" r="50" />
<circle cx="843" cy="2854" r="50" />
<circle cx="984" cy="2851" r="50" />
<circle cx="1130" cy="2862" r="50" />
<circle cx="1274" cy="2858" r="50" />
<circle cx="1412" cy="2849" r="50" />
<circle cx="1560" cy="2862" r="50" />
<circle cx="1700" cy="2862" r="50" />
<circle cx="1844" cy="2858" r="50" />
<circle cx="1984" cy="2851" r="50" />
<circle cx="2130" cy="2862" r="50" />
<circle cx="2276" cy="2863" r="50" />
<circle cx="2414" cy="2858" r="50" />
<circle cx="2560" cy="2862" r="50" />
<circle cx="2700" cy="2862" r="50" />
<circle cx="2844" cy="2858" r="50" />
<circle cx="2982" cy="2849" r="50" />
<circle cx="3130" cy="2862" r="50" />
<circle cx="3270" cy="2862" r="50" />
<circle cx="3414" cy="2858" r="50" />
<circle cx="3554" cy="2851" r="50" />
<circle cx="3700" cy="2862" r="50" />
<circle cx="3844" cy="2858" r="50" />
<circle cx="3983" cy="2854" r="50" />
<circle cx="4130" cy="2862" r="50" />
<circle cx="4270" cy="2862" r="50" />
<circle cx="4414" cy="2858" r="50" />
<circle cx="4552" cy="2849" r="50" />
<circle cx="4700" cy="2862" r="50" />
<circle cx="4838" cy="2855" r="50" />
<circle cx="4984" cy="2858" r="50" />
<circle cx="5124" cy="2851" r="50" />
<circle cx="848" cy="2724" r="50" />
<circle cx="1418" cy="2724" r="50" />
<circle cx="1570" cy="2728" r="50" />
<circle cx="1710" cy="2728" r="50" />
<circle cx="1848" cy="2724" r="50" />
<circle cx="1988" cy="2724" r="50" />
<circle cx="2140" cy="2728" r="50" />
<circle cx="2280" cy="2728" r="50" />
<circle cx="2418" cy="2724" r="50" />
<circle cx="2570" cy="2737" r="50" />
<circle cx="2710" cy="2728" r="50" />
<circle cx="2850" cy="2728" r="50" />
<circle cx="2988" cy="2724" r="50" />
<circle cx="3140" cy="2728" r="50" />
<circle cx="3280" cy="2728" r="50" />
<circle cx="3418" cy="2724" r="50" />
<circle cx="3575" cy="2737" r="50" />
<circle cx="3710" cy="2729" r="50" />
<circle cx="3850" cy="2728" r="50" />
<circle cx="3988" cy="2724" r="50" />
<circle cx="4148" cy="2737" r="50" />
<circle cx="4280" cy="2728" r="50" />
<circle cx="4418" cy="2724" r="50" />
<circle cx="4558" cy="2724" r="50" />
<circle cx="4710" cy="2728" r="50" />
<circle cx="4850" cy="2728" r="50" />
<circle cx="4988" cy="2724" r="50" />
<circle cx="5140" cy="2737" r="50" />
<circle cx="1412" cy="2579" r="50" />
<circle cx="1560" cy="2592" r="50" />
<circle cx="1704" cy="2588" r="50" />
<circle cx="1844" cy="2588" r="50" />
<circle cx="1984" cy="2582" r="50" />
<circle cx="2136" cy="2593" r="50" />
<circle cx="2274" cy="2588" r="50" />
<circle cx="2413" cy="2584" r="50" />
<circle cx="2560" cy="2592" r="50" />
<circle cx="2706" cy="2593" r="50" />
<circle cx="2845" cy="2586" r="50" />
<circle cx="2984" cy="2582" r="50" />
<circle cx="3130" cy="2592" r="50" />
<circle cx="3274" cy="2588" r="50" />
<circle cx="3413" cy="2584" r="50" />
<circle cx="3554" cy="2582" r="50" />
<circle cx="3706" cy="2593" r="50" />
<circle cx="3844" cy="2588" r="50" />
<circle cx="3982" cy="2579" r="50" />
<circle cx="4136" cy="2593" r="50" />
<circle cx="4274" cy="2588" r="50" />
<circle cx="4415" cy="2586" r="50" />
<circle cx="4554" cy="2582" r="50" />
<circle cx="4706" cy="2593" r="50" />
<circle cx="4844" cy="2588" r="50" />
<circle cx="4983" cy="2584" r="50" />
<circle cx="1406" cy="2439" r="50" />
<circle cx="1554" cy="2443" r="50" />
<circle cx="1700" cy="2452" r="50" />
<circle cx="2270" cy="2452" r="50" />
<circle cx="2406" cy="2439" r="50" />
<circle cx="2553" cy="2440" r="50" />
<circle cx="2700" cy="2452" r="50" />
<circle cx="2836" cy="2439" r="50" />
<circle cx="2984" cy="2448" r="50" />
<circle cx="3130" cy="2452" r="50" />
<circle cx="3269" cy="2450" r="50" />
<circle cx="3406" cy="2440" r="50" />
<circle cx="3552" cy="2439" r="50" />
<circle cx="3700" cy="2452" r="50" />
<circle cx="3838" cy="2443" r="50" />
<circle cx="3976" cy="2439" r="50" />
<circle cx="4130" cy="2452" r="50" />
<circle cx="4269" cy="2450" r="50" />
<circle cx="4406" cy="2439" r="50" />
<circle cx="4562" cy="2456" r="50" />
<circle cx="4700" cy="2452" r="50" />
<circle cx="4839" cy="2450" r="50" />
<circle cx="4976" cy="2439" r="50" />
<circle cx="1275" cy="2316" r="50" />
<circle cx="1418" cy="2314" r="50" />
<circle cx="1566" cy="2323" r="50" />
<circle cx="1705" cy="2316" r="50" />
<circle cx="2418" cy="2314" r="50" />
<circle cx="2564" cy="2321" r="50" />
<circle cx="2704" cy="2318" r="50" />
<circle cx="2850" cy="2318" r="50" />
<circle cx="2988" cy="2314" r="50" />
<circle cx="3136" cy="2323" r="50" />
<circle cx="3275" cy="2316" r="50" />
<circle cx="3420" cy="2318" r="50" />
<circle cx="3570" cy="2327" r="50" />
<circle cx="3704" cy="2318" r="50" />
<circle cx="3845" cy="2316" r="50" />
<circle cx="3988" cy="2314" r="50" />
<circle cx="4136" cy="2323" r="50" />
<circle cx="4275" cy="2316" r="50" />
<circle cx="4420" cy="2318" r="50" />
<circle cx="4558" cy="2314" r="50" />
<circle cx="4703" cy="2318" r="50" />
<circle cx="4845" cy="2316" r="50" />
<circle cx="4988" cy="2314" r="50" />
<circle cx="1130" cy="2182" r="50" />
<circle cx="1268" cy="2175" r="50" />
<circle cx="1414" cy="2178" r="50" />
<circle cx="1560" cy="2182" r="50" />
<circle cx="1700" cy="2182" r="50" />
<circle cx="3130" cy="2182" r="50" />
<circle cx="3276" cy="2183" r="50" />
<circle cx="3414" cy="2178" r="50" />
<circle cx="3554" cy="2171" r="50" />
<circle cx="3700" cy="2182" r="50" />
<circle cx="3838" cy="2175" r="50" />
<circle cx="3983" cy="2174" r="50" />
<circle cx="4130" cy="2182" r="50" />
<circle cx="4984" cy="2178" r="50" />
<circle cx="1280" cy="2048" r="50" />
<circle cx="1418" cy="2044" r="50" />
<circle cx="1563" cy="2040" r="50" />
<circle cx="1710" cy="2048" r="50" />
<circle cx="3280" cy="2048" r="50" />
<circle cx="3418" cy="2044" r="50" />
<circle cx="3570" cy="2057" r="50" />
<circle cx="3710" cy="2048" r="50" />
<circle cx="1412" cy="1899" r="50" />
<circle cx="1560" cy="1912" r="50" />
<circle cx="1706" cy="1913" r="50" />
<circle cx="1845" cy="1906" r="50" />
<circle cx="3274" cy="1908" r="50" />
<circle cx="3413" cy="1904" r="50" />
<circle cx="3554" cy="1902" r="50" />
<circle cx="1836" cy="1759" r="50" />
<circle cx="3552" cy="1759" r="50" />
</g>
</svg>